<svg width="180" height="31" viewBox="0 0 180 31" fill="none" xmlns="http://www.w3.org/2000/svg">
<path d="M0.0227273 23.5V0.227272H15.4318V4.28409H4.94318V9.82955H14.4091V13.8864H4.94318V23.5H0.0227273ZM63.0511 23.7841C61.7254 23.7841 60.5246 23.4432 59.4489 22.7614C58.3807 22.072 57.5322 21.0606 56.9034 19.7273C56.2822 18.3864 55.9716 16.7424 55.9716 14.7955C55.9716 12.7955 56.2936 11.1326 56.9375 9.80682C57.5814 8.47348 58.4375 7.47727 59.5057 6.81818C60.5814 6.15152 61.7595 5.81818 63.0398 5.81818C64.017 5.81818 64.8314 5.98485 65.483 6.31818C66.142 6.64394 66.6723 7.05303 67.0739 7.54545C67.483 8.0303 67.7936 8.50758 68.0057 8.97727H68.1534V0.227272H72.983V23.5H68.2102V20.7045H68.0057C67.7784 21.1894 67.4564 21.6705 67.0398 22.1477C66.6307 22.6174 66.0966 23.0076 65.4375 23.3182C64.786 23.6288 63.9905 23.7841 63.0511 23.7841ZM64.5852 19.9318C65.3655 19.9318 66.0246 19.7197 66.5625 19.2955C67.108 18.8636 67.5246 18.2614 67.8125 17.4886C68.108 16.7159 68.2557 15.8106 68.2557 14.7727C68.2557 13.7348 68.1117 12.8333 67.8239 12.0682C67.536 11.303 67.1193 10.7121 66.5739 10.2955C66.0284 9.87879 65.3655 9.67045 64.5852 9.67045C63.7898 9.67045 63.1193 9.88636 62.5739 10.3182C62.0284 10.75 61.6155 11.3485 61.3352 12.1136C61.0549 12.8788 60.9148 13.7652 60.9148 14.7727C60.9148 15.7879 61.0549 16.6856 61.3352 17.4659C61.6231 18.2386 62.036 18.8447 62.5739 19.2841C63.1193 19.7159 63.7898 19.9318 64.5852 19.9318ZM79.9517 30.0455C79.3381 30.0455 78.7623 29.9962 78.2244 29.8977C77.6941 29.8068 77.2547 29.6894 76.9062 29.5455L77.9972 25.9318C78.5653 26.1061 79.0767 26.2008 79.5312 26.2159C79.9934 26.2311 80.3911 26.125 80.7244 25.8977C81.0653 25.6705 81.3419 25.2841 81.554 24.7386L81.8381 24L75.5767 6.04545H80.6676L84.2812 18.8636H84.4631L88.1108 6.04545H93.2358L86.4517 25.3864C86.1259 26.3258 85.6828 27.1439 85.1222 27.8409C84.5691 28.5455 83.8684 29.0871 83.0199 29.4659C82.1714 29.8523 81.1487 30.0455 79.9517 30.0455ZM102.96 23.5V20.5795L114.574 4.28409H102.938V0.227272H120.756V3.14773L109.131 19.4432H120.778V23.5H102.96ZM148.929 13.4091V23.5H144.088V6.04545H148.702V9.125H148.906C149.293 8.10985 149.94 7.30682 150.849 6.71591C151.759 6.11742 152.861 5.81818 154.156 5.81818C155.368 5.81818 156.425 6.08333 157.327 6.61364C158.228 7.14394 158.929 7.90151 159.429 8.88636C159.929 9.86364 160.179 11.0303 160.179 12.3864V23.5H155.338V13.25C155.346 12.1818 155.073 11.3485 154.52 10.75C153.967 10.1439 153.205 9.84091 152.236 9.84091C151.584 9.84091 151.009 9.98106 150.509 10.2614C150.016 10.5417 149.63 10.9508 149.349 11.4886C149.077 12.0189 148.937 12.6591 148.929 13.4091ZM171.949 23.8409C170.153 23.8409 168.608 23.4773 167.312 22.75C166.025 22.0152 165.032 20.9773 164.335 19.6364C163.638 18.2879 163.29 16.6932 163.29 14.8523C163.29 13.0568 163.638 11.4811 164.335 10.125C165.032 8.76894 166.013 7.71212 167.278 6.95454C168.551 6.19697 170.044 5.81818 171.756 5.81818C172.907 5.81818 173.979 6.00379 174.972 6.375C175.972 6.73864 176.843 7.28788 177.585 8.02273C178.335 8.75758 178.919 9.68182 179.335 10.7955C179.752 11.9015 179.96 13.197 179.96 14.6818V16.0114H165.222V13.0114H175.403C175.403 12.3144 175.252 11.697 174.949 11.1591C174.646 10.6212 174.225 10.2008 173.688 9.89773C173.157 9.58712 172.54 9.43182 171.835 9.43182C171.1 9.43182 170.449 9.60227 169.881 9.94318C169.32 10.2765 168.881 10.7273 168.562 11.2955C168.244 11.8561 168.081 12.4811 168.074 13.1705V16.0227C168.074 16.8864 168.233 17.6326 168.551 18.2614C168.877 18.8902 169.335 19.375 169.926 19.7159C170.517 20.0568 171.218 20.2273 172.028 20.2273C172.566 20.2273 173.059 20.1515 173.506 20C173.953 19.8485 174.335 19.6212 174.653 19.3182C174.972 19.0152 175.214 18.6439 175.381 18.2045L179.858 18.5C179.631 19.5758 179.165 20.5152 178.46 21.3182C177.763 22.1136 176.862 22.7348 175.756 23.1818C174.657 23.6212 173.388 23.8409 171.949 23.8409Z" fill="white"/>
<path d="M25.2557 23.8409C23.4905 23.8409 21.964 23.4659 20.6761 22.7159C19.3958 21.9583 18.4072 20.9053 17.7102 19.5568C17.0133 18.2008 16.6648 16.6288 16.6648 14.8409C16.6648 13.0379 17.0133 11.4621 17.7102 10.1136C18.4072 8.75758 19.3958 7.70454 20.6761 6.95454C21.964 6.19697 23.4905 5.81818 25.2557 5.81818C27.0208 5.81818 28.5436 6.19697 29.8239 6.95454C31.1117 7.70454 32.1042 8.75758 32.8011 10.1136C33.4981 11.4621 33.8466 13.0379 33.8466 14.8409C33.8466 16.6288 33.4981 18.2008 32.8011 19.5568C32.1042 20.9053 31.1117 21.9583 29.8239 22.7159C28.5436 23.4659 27.0208 23.8409 25.2557 23.8409ZM25.2784 20.0909C26.0814 20.0909 26.7519 19.8636 27.2898 19.4091C27.8277 18.947 28.233 18.3182 28.5057 17.5227C28.786 16.7273 28.9261 15.822 28.9261 14.8068C28.9261 13.7917 28.786 12.8864 28.5057 12.0909C28.233 11.2955 27.8277 10.6667 27.2898 10.2045C26.7519 9.74242 26.0814 9.51136 25.2784 9.51136C24.4678 9.51136 23.786 9.74242 23.233 10.2045C22.6875 10.6667 22.2746 11.2955 21.9943 12.0909C21.7216 12.8864 21.5852 13.7917 21.5852 14.8068C21.5852 15.822 21.7216 16.7273 21.9943 17.5227C22.2746 18.3182 22.6875 18.947 23.233 19.4091C23.786 19.8636 24.4678 20.0909 25.2784 20.0909ZM44.8807 23.8409C43.1155 23.8409 41.589 23.4659 40.3011 22.7159C39.0208 21.9583 38.0322 20.9053 37.3352 19.5568C36.6383 18.2008 36.2898 16.6288 36.2898 14.8409C36.2898 13.0379 36.6383 11.4621 37.3352 10.1136C38.0322 8.75758 39.0208 7.70454 40.3011 6.95454C41.589 6.19697 43.1155 5.81818 44.8807 5.81818C46.6458 5.81818 48.1686 6.19697 49.4489 6.95454C50.7367 7.70454 51.7292 8.75758 52.4261 10.1136C53.1231 11.4621 53.4716 13.0379 53.4716 14.8409C53.4716 16.6288 53.1231 18.2008 52.4261 19.5568C51.7292 20.9053 50.7367 21.9583 49.4489 22.7159C48.1686 23.4659 46.6458 23.8409 44.8807 23.8409ZM44.9034 20.0909C45.7064 20.0909 46.3769 19.8636 46.9148 19.4091C47.4527 18.947 47.858 18.3182 48.1307 17.5227C48.411 16.7273 48.5511 15.822 48.5511 14.8068C48.5511 13.7917 48.411 12.8864 48.1307 12.0909C47.858 11.2955 47.4527 10.6667 46.9148 10.2045C46.3769 9.74242 45.7064 9.51136 44.9034 9.51136C44.0928 9.51136 43.411 9.74242 42.858 10.2045C42.3125 10.6667 41.8996 11.2955 41.6193 12.0909C41.3466 12.8864 41.2102 13.7917 41.2102 14.8068C41.2102 15.822 41.3466 16.7273 41.6193 17.5227C41.8996 18.3182 42.3125 18.947 42.858 19.4091C43.411 19.8636 44.0928 20.0909 44.9034 20.0909Z" fill="#FF0A0A"/>
<path d="M132.349 23.8409C130.584 23.8409 129.058 23.4659 127.77 22.7159C126.49 21.9583 125.501 20.9053 124.804 19.5568C124.107 18.2008 123.759 16.6288 123.759 14.8409C123.759 13.0379 124.107 11.4621 124.804 10.1136C125.501 8.75758 126.49 7.70454 127.77 6.95454C129.058 6.19697 130.584 5.81818 132.349 5.81818C134.115 5.81818 135.637 6.19697 136.918 6.95454C138.205 7.70454 139.198 8.75758 139.895 10.1136C140.592 11.4621 140.94 13.0379 140.94 14.8409C140.94 16.6288 140.592 18.2008 139.895 19.5568C139.198 20.9053 138.205 21.9583 136.918 22.7159C135.637 23.4659 134.115 23.8409 132.349 23.8409ZM132.372 20.0909C133.175 20.0909 133.846 19.8636 134.384 19.4091C134.921 18.947 135.327 18.3182 135.599 17.5227C135.88 16.7273 136.02 15.822 136.02 14.8068C136.02 13.7917 135.88 12.8864 135.599 12.0909C135.327 11.2955 134.921 10.6667 134.384 10.2045C133.846 9.74242 133.175 9.51136 132.372 9.51136C131.562 9.51136 130.88 9.74242 130.327 10.2045C129.781 10.6667 129.368 11.2955 129.088 12.0909C128.815 12.8864 128.679 13.7917 128.679 14.8068C128.679 15.822 128.815 16.7273 129.088 17.5227C129.368 18.3182 129.781 18.947 130.327 19.4091C130.88 19.8636 131.562 20.0909 132.372 20.0909Z" fill="#FF0909"/>
</svg>
